<svg
                xmlns="http://www.w3.org/2000/svg"
                className="mr-2 h-5 w-5 text-green-400"
                viewBox="0 0 20 20"
                fill="currentColor"
              >
                <path
                  fillRule="evenodd"
                  d="M5.293 5.293a1 1 0 011.414 0L10 8.586l3.293-3.293a1 1 0 111.414 1.414l-4 4a1 1 0 01-1.414 0l-4-4a1 1 0 010-1.414zM10 17a1 1 0 110-2 1 1 0 010 2zM5 15a1 1 0 110-2 1 1 0 010 2zm10 0a1 1 0 110-2 1 1 0 010 2zM5 7a1 1 0 110-2 1 1 0 010 2zM10 3a1 1 0 110-2 1 1 0 010 2zm5 4a1 1 0 110-2 1 1 0 010 2z"
                  clipRule="evenodd"
                />
              </svg>